<?xml version="1.0" encoding="utf-8"?>
<!-- Generator: Adobe Illustrator 18.0.0, SVG Export Plug-In . SVG Version: 6.00 Build 0)  -->
<!DOCTYPE svg PUBLIC "-//W3C//DTD SVG 1.1//EN" "http://www.w3.org/Graphics/SVG/1.1/DTD/svg11.dtd">
<svg version="1.1" xmlns="http://www.w3.org/2000/svg" xmlns:xlink="http://www.w3.org/1999/xlink" x="0px" y="0px"
	 viewBox="0 0 1000 62" enable-background="new 0 0 1000 62" xml:space="preserve">
<g id="Layer_1" display="none">
	<rect display="inline" stroke="#FFFFFF" stroke-miterlimit="10" width="1000" height="62"/>
</g>
<g id="Text">
	<g>
		<path fill="#FFFFFF" d="M82.8,8.3H92c3.7,0,6.5,0.4,8.5,1.3c2,0.9,3.6,2.2,4.7,4c1.2,1.8,1.7,3.8,1.7,6.1c0,2.1-0.5,4-1.5,5.7
			s-2.5,3.1-4.5,4.1c2.4,0.8,4.3,1.8,5.6,2.9c1.3,1.1,2.3,2.5,3.1,4s1.1,3.3,1.1,5.1c0,3.7-1.4,6.9-4.1,9.5s-6.4,3.9-11,3.9H82.8
			V8.3z M87.4,12.9v14.9H90c3.2,0,5.6-0.3,7.2-0.9c1.5-0.6,2.7-1.6,3.6-2.9c0.9-1.3,1.3-2.7,1.3-4.3c0-2.1-0.7-3.8-2.2-5
			c-1.5-1.2-3.9-1.8-7.1-1.8H87.4z M87.4,32.5v17.9h5.8c3.4,0,5.9-0.3,7.5-1c1.6-0.7,2.9-1.7,3.8-3.1c1-1.4,1.4-3,1.4-4.6
			c0-2.1-0.7-3.9-2-5.4c-1.4-1.5-3.2-2.6-5.6-3.2c-1.6-0.4-4.4-0.6-8.3-0.6H87.4z"/>
		<path fill="#FFFFFF" d="M120.8,6.2c1,0,1.9,0.4,2.6,1.1c0.7,0.7,1.1,1.6,1.1,2.6c0,1-0.4,1.9-1.1,2.6c-0.7,0.7-1.6,1.1-2.6,1.1
			c-1,0-1.8-0.4-2.6-1.1c-0.7-0.7-1.1-1.6-1.1-2.6c0-1,0.4-1.9,1.1-2.6C119,6.6,119.8,6.2,120.8,6.2z M118.6,20.5h4.4V55h-4.4V20.5z
			"/>
		<path fill="#FFFFFF" d="M148.6,19.6c5.3,0,9.7,1.9,13.2,5.8c3.2,3.5,4.8,7.7,4.8,12.5c0,4.8-1.7,9-5,12.6c-3.4,3.6-7.7,5.4-13,5.4
			c-5.3,0-9.6-1.8-13-5.4c-3.4-3.6-5-7.8-5-12.6c0-4.8,1.6-8.9,4.8-12.4C138.9,21.5,143.3,19.6,148.6,19.6z M148.6,23.9
			c-3.7,0-6.9,1.4-9.5,4.1c-2.7,2.7-4,6-4,9.9c0,2.5,0.6,4.8,1.8,7c1.2,2.2,2.8,3.8,4.9,5c2.1,1.2,4.3,1.8,6.8,1.8s4.7-0.6,6.8-1.8
			c2.1-1.2,3.7-2.8,4.9-5c1.2-2.2,1.8-4.5,1.8-7c0-3.9-1.3-7.2-4-9.9S152.3,23.9,148.6,23.9z"/>
	</g>
</g>
<g id="Line_lett">
	<line fill="none" stroke="#FFFFFF" stroke-width="3" stroke-miterlimit="10" x1="0" y1="45.5" x2="85" y2="45.5"/>
	<line fill="none" stroke="#FFFFFF" stroke-width="3" stroke-miterlimit="10" x1="163" y1="45.5" x2="1000" y2="45.5"/>
</g>
</svg>
