<?xml version="1.0" encoding="utf-8"?>
<!-- Generator: Adobe Illustrator 18.0.0, SVG Export Plug-In . SVG Version: 6.00 Build 0)  -->
<!DOCTYPE svg PUBLIC "-//W3C//DTD SVG 1.1//EN" "http://www.w3.org/Graphics/SVG/1.1/DTD/svg11.dtd">
<svg version="1.1" xmlns="http://www.w3.org/2000/svg" xmlns:xlink="http://www.w3.org/1999/xlink" x="0px" y="0px"
	 viewBox="0 0 1000 49" enable-background="new 0 0 1000 49" xml:space="preserve">
<g id="Type">
	<g>
		<path fill="#2D231C" d="M110.6,10.1l-3.6,2.7c-2-2.6-4.3-4.5-7.1-5.8c-2.8-1.3-5.8-2-9.1-2c-3.6,0-7,0.9-10,2.6
			c-3.1,1.7-5.5,4.1-7.2,7c-1.7,2.9-2.5,6.2-2.5,9.9c0,5.5,1.9,10.1,5.7,13.8c3.8,3.7,8.6,5.5,14.3,5.5c6.3,0,11.6-2.5,15.9-7.4
			l3.6,2.7c-2.3,2.9-5.1,5.1-8.4,6.7c-3.4,1.6-7.1,2.4-11.3,2.4c-7.9,0-14.2-2.6-18.7-7.9c-3.8-4.4-5.8-9.8-5.8-16.1
			c0-6.6,2.3-12.2,7-16.7C78,2.9,83.8,0.6,90.8,0.6c4.2,0,8,0.8,11.4,2.5C105.7,4.8,108.5,7.1,110.6,10.1z"/>
		<path fill="#2D231C" d="M134.9,12.7c5.2,0,9.4,1.9,12.8,5.6c3.1,3.4,4.6,7.4,4.6,12.1c0,4.7-1.6,8.8-4.9,12.3
			c-3.3,3.5-7.4,5.2-12.6,5.2c-5.1,0-9.3-1.7-12.6-5.2c-3.3-3.5-4.9-7.6-4.9-12.3c0-4.6,1.5-8.7,4.6-12.1
			C125.4,14.5,129.7,12.7,134.9,12.7z M134.8,16.9c-3.6,0-6.7,1.3-9.2,4c-2.6,2.6-3.9,5.8-3.9,9.6c0,2.4,0.6,4.7,1.8,6.8
			c1.2,2.1,2.8,3.7,4.8,4.8c2,1.1,4.2,1.7,6.6,1.7c2.4,0,4.6-0.6,6.6-1.7c2-1.1,3.6-2.8,4.8-4.8c1.2-2.1,1.8-4.3,1.8-6.8
			c0-3.8-1.3-7-3.9-9.6S138.4,16.9,134.8,16.9z"/>
		<path fill="#2D231C" d="M160.3,13.5h4.3v6c1.7-2.3,3.6-4,5.7-5.2c2.1-1.1,4.4-1.7,6.8-1.7c2.5,0,4.7,0.6,6.7,1.9
			c1.9,1.3,3.4,3,4.3,5.1s1.4,5.5,1.4,10.1V47h-4.3V31c0-3.9-0.2-6.4-0.5-7.7c-0.5-2.2-1.5-3.9-2.9-5c-1.4-1.1-3.3-1.7-5.5-1.7
			c-2.6,0-4.9,0.9-7,2.6c-2.1,1.7-3.4,3.9-4.1,6.4c-0.4,1.7-0.6,4.7-0.6,9.1V47h-4.3V13.5z"/>
		<path fill="#2D231C" d="M202.4,1.1h4.3v12.4h6.8v3.7h-6.8V47h-4.3V17.3h-5.9v-3.7h5.9V1.1z"/>
		<path fill="#2D231C" d="M253.4,13.5V47h-4.2v-5.8c-1.8,2.2-3.8,3.8-6.1,5c-2.2,1.1-4.7,1.7-7.4,1.7c-4.7,0-8.8-1.7-12.1-5.2
			c-3.4-3.4-5-7.6-5-12.5c0-4.8,1.7-8.9,5.1-12.4c3.4-3.4,7.5-5.1,12.2-5.1c2.7,0,5.2,0.6,7.5,1.8s4.2,2.9,5.9,5.3v-6.2H253.4z
			 M236.2,16.8c-2.4,0-4.6,0.6-6.6,1.8c-2,1.2-3.6,2.8-4.8,5s-1.8,4.4-1.8,6.8c0,2.4,0.6,4.6,1.8,6.8s2.8,3.8,4.9,5
			c2,1.2,4.2,1.8,6.6,1.8c2.4,0,4.6-0.6,6.7-1.8c2.1-1.2,3.7-2.8,4.9-4.8c1.1-2,1.7-4.3,1.7-6.9c0-3.9-1.3-7.1-3.8-9.7
			C243,18.1,239.9,16.8,236.2,16.8z"/>
		<path fill="#2D231C" d="M295.6,20.5l-3.4,2.1c-2.9-3.9-7-5.9-12.1-5.9c-4.1,0-7.5,1.3-10.2,3.9c-2.7,2.6-4,5.8-4,9.6
			c0,2.4,0.6,4.7,1.9,6.9c1.2,2.2,2.9,3.8,5.1,5c2.2,1.2,4.6,1.8,7.3,1.8c4.9,0,8.9-2,12-5.9l3.4,2.2c-1.6,2.4-3.7,4.3-6.4,5.6
			c-2.7,1.3-5.8,2-9.2,2c-5.3,0-9.7-1.7-13.2-5c-3.5-3.4-5.2-7.5-5.2-12.3c0-3.2,0.8-6.2,2.4-9c1.6-2.8,3.9-4.9,6.7-6.5
			c2.9-1.6,6-2.3,9.6-2.3c2.2,0,4.4,0.3,6.4,1c2.1,0.7,3.8,1.6,5.2,2.6C293.3,17.4,294.6,18.8,295.6,20.5z"/>
		<path fill="#2D231C" d="M307.6,1.1h4.3v12.4h6.8v3.7h-6.8V47h-4.3V17.3h-5.9v-3.7h5.9V1.1z"/>
	</g>
</g>
<g id="Line_Left">
	<line fill="#2D231C" stroke="#000000" stroke-width="3" stroke-miterlimit="10" x1="0" y1="36" x2="73.7" y2="36"/>
</g>
<g id="Line_Right">
	<line fill="#2D231C" stroke="#000000" stroke-width="3" stroke-miterlimit="10" x1="309" y1="36.3" x2="1000" y2="36.3"/>
</g>
</svg>
