<?xml version="1.0" encoding="utf-8"?>
<!-- Generator: Adobe Illustrator 18.0.0, SVG Export Plug-In . SVG Version: 6.00 Build 0)  -->
<!DOCTYPE svg PUBLIC "-//W3C//DTD SVG 1.1//EN" "http://www.w3.org/Graphics/SVG/1.1/DTD/svg11.dtd">
<svg version="1.1" xmlns="http://www.w3.org/2000/svg" xmlns:xlink="http://www.w3.org/1999/xlink" x="0px" y="0px"
	 viewBox="0 0 1000 62" enable-background="new 0 0 1000 62" xml:space="preserve">
<g id="Layer_1" display="none">
	<rect display="inline" stroke="#FFFFFF" stroke-miterlimit="10" width="1000" height="62"/>
</g>
<g id="Bio" display="none">
	<g display="inline">
		<path fill="#FFFFFF" d="M82.8,8.3H92c3.7,0,6.5,0.4,8.5,1.3c2,0.9,3.6,2.2,4.7,4c1.2,1.8,1.7,3.8,1.7,6.1c0,2.1-0.5,4-1.5,5.7
			s-2.5,3.1-4.5,4.1c2.4,0.8,4.3,1.8,5.6,2.9c1.3,1.1,2.3,2.5,3.1,4s1.1,3.3,1.1,5.1c0,3.7-1.4,6.9-4.1,9.5s-6.4,3.9-11,3.9H82.8
			V8.3z M87.4,12.9v14.9H90c3.2,0,5.6-0.3,7.2-0.9c1.5-0.6,2.7-1.6,3.6-2.9c0.9-1.3,1.3-2.7,1.3-4.3c0-2.1-0.7-3.8-2.2-5
			c-1.5-1.2-3.9-1.8-7.1-1.8H87.4z M87.4,32.5v17.9h5.8c3.4,0,5.9-0.3,7.5-1c1.6-0.7,2.9-1.7,3.8-3.1c1-1.4,1.4-3,1.4-4.6
			c0-2.1-0.7-3.9-2-5.4c-1.4-1.5-3.2-2.6-5.6-3.2c-1.6-0.4-4.4-0.6-8.3-0.6H87.4z"/>
		<path fill="#FFFFFF" d="M120.8,6.2c1,0,1.9,0.4,2.6,1.1c0.7,0.7,1.1,1.6,1.1,2.6c0,1-0.4,1.9-1.1,2.6c-0.7,0.7-1.6,1.1-2.6,1.1
			c-1,0-1.8-0.4-2.6-1.1c-0.7-0.7-1.1-1.6-1.1-2.6c0-1,0.4-1.9,1.1-2.6C119,6.6,119.8,6.2,120.8,6.2z M118.6,20.5h4.4V55h-4.4V20.5z
			"/>
		<path fill="#FFFFFF" d="M148.6,19.6c5.3,0,9.7,1.9,13.2,5.8c3.2,3.5,4.8,7.7,4.8,12.5c0,4.8-1.7,9-5,12.6c-3.4,3.6-7.7,5.4-13,5.4
			c-5.3,0-9.6-1.8-13-5.4c-3.4-3.6-5-7.8-5-12.6c0-4.8,1.6-8.9,4.8-12.4C138.9,21.5,143.3,19.6,148.6,19.6z M148.6,23.9
			c-3.7,0-6.9,1.4-9.5,4.1c-2.7,2.7-4,6-4,9.9c0,2.5,0.6,4.8,1.8,7c1.2,2.2,2.8,3.8,4.9,5c2.1,1.2,4.3,1.8,6.8,1.8s4.7-0.6,6.8-1.8
			c2.1-1.2,3.7-2.8,4.9-5c1.2-2.2,1.8-4.5,1.8-7c0-3.9-1.3-7.2-4-9.9S152.3,23.9,148.6,23.9z"/>
	</g>
</g>
<g id="Resume">
	<g>
		<path fill="#FFFFFF" d="M82.9,8.3h9.3c5.2,0,8.7,0.2,10.5,0.6c2.8,0.6,5,2,6.8,4.1c1.7,2.1,2.6,4.7,2.6,7.7c0,2.5-0.6,4.8-1.8,6.7
			c-1.2,1.9-2.9,3.4-5.1,4.4c-2.2,1-5.3,1.5-9.2,1.5L112.7,55H107L90.2,33.3h-2.6V55h-4.7V8.3z M87.5,12.9v15.9l8,0.1
			c3.1,0,5.4-0.3,6.9-0.9c1.5-0.6,2.7-1.5,3.5-2.8c0.8-1.3,1.3-2.8,1.3-4.4c0-1.6-0.4-3-1.3-4.3c-0.8-1.3-2-2.2-3.3-2.7
			c-1.4-0.5-3.7-0.8-6.9-0.8H87.5z"/>
		<path fill="#FFFFFF" d="M150.4,43.5l3.7,2c-1.2,2.4-2.6,4.4-4.3,5.8c-1.6,1.5-3.4,2.6-5.4,3.4c-2,0.8-4.3,1.2-6.8,1.2
			c-5.6,0-10-1.8-13.2-5.5s-4.8-7.9-4.8-12.5c0-4.4,1.3-8.3,4-11.7c3.4-4.4,8-6.5,13.7-6.5c5.9,0,10.6,2.2,14.1,6.7
			c2.5,3.2,3.8,7.1,3.8,11.8h-31.1c0.1,4,1.4,7.3,3.8,9.9s5.5,3.8,9.2,3.8c1.8,0,3.5-0.3,5.1-0.9s3.1-1.4,4.2-2.4
			S149.1,45.8,150.4,43.5z M150.4,34.2c-0.6-2.4-1.5-4.3-2.6-5.7c-1.1-1.4-2.6-2.6-4.5-3.4c-1.9-0.9-3.8-1.3-5.9-1.3
			c-3.4,0-6.3,1.1-8.7,3.3c-1.8,1.6-3.1,4-4,7.1H150.4z"/>
		<path fill="#FFFFFF" d="M180.9,24.2l-2.9,3c-2.4-2.3-4.7-3.5-7-3.5c-1.4,0-2.7,0.5-3.7,1.4c-1,1-1.5,2.1-1.5,3.3
			c0,1.1,0.4,2.2,1.3,3.2c0.8,1,2.6,2.3,5.3,3.6c3.3,1.7,5.6,3.4,6.7,5c1.2,1.6,1.7,3.4,1.7,5.4c0,2.8-1,5.2-3,7.2c-2,2-4.5,3-7.5,3
			c-2,0-3.9-0.4-5.7-1.3c-1.8-0.9-3.3-2.1-4.5-3.6l2.8-3.2c2.3,2.6,4.7,3.8,7.2,3.8c1.8,0,3.3-0.6,4.5-1.7c1.3-1.1,1.9-2.5,1.9-4
			c0-1.3-0.4-2.4-1.2-3.4c-0.8-1-2.7-2.2-5.6-3.7c-3.1-1.6-5.2-3.2-6.4-4.8c-1.1-1.6-1.7-3.4-1.7-5.4c0-2.6,0.9-4.8,2.7-6.5
			c1.8-1.7,4.1-2.6,6.8-2.6C174.5,19.6,177.7,21.1,180.9,24.2z"/>
		<path fill="#FFFFFF" d="M188.2,20.5h4.4v16.1c0,3.9,0.2,6.6,0.6,8.1c0.6,2.1,1.8,3.8,3.6,5c1.8,1.2,3.9,1.8,6.4,1.8
			s4.6-0.6,6.3-1.8s2.9-2.8,3.6-4.7c0.4-1.3,0.7-4.2,0.7-8.5V20.5h4.5v16.9c0,4.8-0.6,8.3-1.7,10.8c-1.1,2.4-2.8,4.3-5,5.7
			c-2.2,1.4-5,2-8.4,2s-6.2-0.7-8.4-2c-2.3-1.4-3.9-3.3-5-5.7c-1.1-2.4-1.7-6.1-1.7-11V20.5z"/>
		<path fill="#FFFFFF" d="M228.3,20.5h4.4v6c1.5-2.2,3.1-3.8,4.8-4.8c2.2-1.4,4.6-2,7.1-2c1.7,0,3.3,0.3,4.8,1
			c1.5,0.7,2.7,1.5,3.7,2.6s1.8,2.6,2.5,4.7c1.5-2.7,3.3-4.8,5.5-6.2c2.2-1.4,4.6-2.1,7.2-2.1c2.4,0,4.5,0.6,6.3,1.8
			c1.8,1.2,3.2,2.9,4.1,5s1.3,5.4,1.3,9.7V55h-4.5V36.1c0-3.7-0.3-6.2-0.8-7.6s-1.4-2.5-2.7-3.3c-1.3-0.8-2.8-1.3-4.6-1.3
			c-2.2,0-4.1,0.6-5.9,1.9s-3.1,3-3.9,5.1c-0.8,2.1-1.2,5.6-1.2,10.6V55h-4.4V37.3c0-4.2-0.3-7-0.8-8.5c-0.5-1.5-1.4-2.7-2.7-3.6
			c-1.3-0.9-2.8-1.3-4.6-1.3c-2.1,0-4,0.6-5.8,1.9c-1.8,1.2-3.1,2.9-4,5c-0.9,2.1-1.3,5.3-1.3,9.6V55h-4.4V20.5z"/>
		<path fill="#FFFFFF" d="M318.4,43.5l3.7,2c-1.2,2.4-2.6,4.4-4.3,5.8c-1.6,1.5-3.4,2.6-5.4,3.4c-2,0.8-4.3,1.2-6.8,1.2
			c-5.6,0-10-1.8-13.2-5.5s-4.8-7.9-4.8-12.5c0-4.4,1.3-8.3,4-11.7c3.4-4.4,8-6.5,13.7-6.5c5.9,0,10.6,2.2,14.1,6.7
			c2.5,3.2,3.8,7.1,3.8,11.8h-31.1c0.1,4,1.4,7.3,3.8,9.9s5.5,3.8,9.2,3.8c1.8,0,3.5-0.3,5.1-0.9s3.1-1.4,4.2-2.4
			S317,45.8,318.4,43.5z M318.4,34.2c-0.6-2.4-1.5-4.3-2.6-5.7c-1.1-1.4-2.6-2.6-4.5-3.4c-1.9-0.9-3.8-1.3-5.9-1.3
			c-3.4,0-6.3,1.1-8.7,3.3c-1.8,1.6-3.1,4-4,7.1H318.4z"/>
	</g>
</g>
<g id="Line_lett">
	<line fill="none" stroke="#FFFFFF" stroke-width="3" stroke-miterlimit="10" x1="-1" y1="49.5" x2="84" y2="49.5"/>
	<line fill="none" stroke="#FFFFFF" stroke-width="3" stroke-miterlimit="10" x1="317" y1="49.5" x2="999.6" y2="49"/>
	<path fill="none" stroke="#FFFFFF" stroke-width="3" stroke-miterlimit="10" d="M404,49.5"/>
	<path fill="none" stroke="#FFFFFF" stroke-width="3" stroke-miterlimit="10" d="M319,49.5"/>
	<path fill="none" stroke="#FFFFFF" stroke-width="3" stroke-miterlimit="10" d="M403,48.5"/>
	<path fill="none" stroke="#FFFFFF" stroke-width="3" stroke-miterlimit="10" d="M318,48.5"/>
	<path fill="none" stroke="#FFFFFF" stroke-width="3" stroke-miterlimit="10" d="M407,45.5"/>
	<path fill="none" stroke="#FFFFFF" stroke-width="3" stroke-miterlimit="10" d="M322,45.5"/>
</g>
</svg>
