<?xml version="1.0" encoding="utf-8"?>
<!-- Generator: Adobe Illustrator 18.0.0, SVG Export Plug-In . SVG Version: 6.00 Build 0)  -->
<!DOCTYPE svg PUBLIC "-//W3C//DTD SVG 1.1//EN" "http://www.w3.org/Graphics/SVG/1.1/DTD/svg11.dtd">
<svg version="1.1" xmlns="http://www.w3.org/2000/svg" xmlns:xlink="http://www.w3.org/1999/xlink" x="0px" y="0px"
	 viewBox="0 0 417.2 80" enable-background="new 0 0 417.2 80" xml:space="preserve">
<g id="Layer_1" display="none">
</g>
<g id="Tiago_Ferreira" display="none">
	<text transform="matrix(1 0 0 1 3.431 66.087)" display="inline"><tspan x="0" y="0" font-family="'CenturyGothic'" font-size="85">T</tspan><tspan x="36.2" y="0" font-family="'CenturyGothic'" font-size="60">iago</tspan><tspan x="168.8" y="0" font-family="'CenturyGothic'" font-size="65"> </tspan><tspan x="186.8" y="0" font-family="'CenturyGothic'" font-size="85">F</tspan><tspan x="228.1" y="0" font-family="'CenturyGothic'" font-size="60">erreira</tspan></text>
</g>
<g id="Tiago_outlines">
	<g>
		<path d="M4.8,11V5h33.5v6H24.6v55.1h-6.2V11H4.8z"/>
		<path d="M45.6,21.1c0.9,0,1.7,0.3,2.4,1c0.7,0.7,1,1.5,1,2.4c0,0.9-0.3,1.7-1,2.4c-0.7,0.7-1.5,1-2.4,1c-0.9,0-1.7-0.3-2.4-1
			c-0.7-0.7-1-1.5-1-2.4c0-0.9,0.3-1.7,1-2.4C43.9,21.4,44.7,21.1,45.6,21.1z M43.6,34.2h4.1v31.9h-4.1V34.2z"/>
		<path d="M88,34.2v31.9h-4v-5.5c-1.7,2.1-3.6,3.7-5.8,4.7s-4.5,1.6-7,1.6c-4.5,0-8.4-1.6-11.6-4.9s-4.8-7.3-4.8-11.9
			c0-4.6,1.6-8.5,4.8-11.8c3.2-3.3,7.1-4.9,11.6-4.9c2.6,0,5,0.6,7.1,1.7c2.1,1.1,4,2.8,5.6,5v-5.9H88z M71.6,37.3
			c-2.3,0-4.4,0.6-6.3,1.7c-1.9,1.1-3.5,2.7-4.6,4.7c-1.1,2-1.7,4.2-1.7,6.4c0,2.2,0.6,4.4,1.7,6.4c1.2,2,2.7,3.6,4.6,4.8
			s4,1.7,6.2,1.7c2.2,0,4.4-0.6,6.4-1.7c2-1.1,3.6-2.7,4.6-4.6c1.1-1.9,1.6-4.1,1.6-6.5c0-3.7-1.2-6.8-3.6-9.2
			C78.1,38.6,75.1,37.3,71.6,37.3z"/>
		<path d="M124.7,34.2h4.1v25.4c0,4.5-0.4,7.7-1.2,9.8c-1.1,2.9-2.9,5.2-5.6,6.8c-2.7,1.6-5.8,2.4-9.6,2.4c-2.7,0-5.2-0.4-7.4-1.2
			c-2.2-0.8-4-1.8-5.3-3.1c-1.4-1.3-2.6-3.2-3.8-5.7h4.5c1.2,2.1,2.8,3.7,4.7,4.7c1.9,1,4.3,1.5,7.1,1.5c2.8,0,5.2-0.5,7.1-1.6
			s3.3-2.4,4.1-3.9c0.8-1.6,1.2-4.1,1.2-7.6V60c-1.5,2-3.4,3.5-5.7,4.5c-2.2,1-4.6,1.6-7.1,1.6c-2.9,0-5.7-0.7-8.3-2.2
			s-4.6-3.4-6-5.9s-2.1-5.2-2.1-8.1s0.7-5.7,2.2-8.2c1.5-2.5,3.5-4.6,6.1-6.1c2.6-1.5,5.3-2.2,8.2-2.2c2.4,0,4.6,0.5,6.7,1.5
			c2.1,1,4.1,2.6,6,4.9V34.2z M112.6,37.3c-2.3,0-4.5,0.6-6.5,1.7c-2,1.1-3.6,2.7-4.7,4.7c-1.1,2-1.7,4.1-1.7,6.4
			c0,3.5,1.2,6.4,3.5,8.7s5.4,3.4,9.1,3.4c3.8,0,6.8-1.1,9.1-3.4c2.3-2.3,3.4-5.2,3.4-8.9c0-2.4-0.5-4.5-1.6-6.4s-2.5-3.4-4.5-4.5
			C116.9,37.9,114.8,37.3,112.6,37.3z"/>
		<path d="M152.6,33.4c4.9,0,9,1.8,12.2,5.3c2.9,3.2,4.4,7.1,4.4,11.5c0,4.5-1.6,8.3-4.7,11.7s-7.1,5-12,5c-4.9,0-8.9-1.7-12-5
			c-3.1-3.3-4.7-7.2-4.7-11.7c0-4.4,1.5-8.2,4.4-11.5C143.6,35.2,147.7,33.4,152.6,33.4z M152.6,37.4c-3.4,0-6.3,1.3-8.8,3.8
			c-2.4,2.5-3.7,5.6-3.7,9.1c0,2.3,0.6,4.5,1.7,6.4s2.6,3.5,4.5,4.6c1.9,1.1,4,1.6,6.3,1.6c2.3,0,4.4-0.5,6.3-1.6
			c1.9-1.1,3.4-2.6,4.5-4.6c1.1-2,1.7-4.1,1.7-6.4c0-3.6-1.2-6.6-3.7-9.1S156,37.4,152.6,37.4z"/>
		<path d="M197.7,5h30.6v6h-24.5v19.1h24.5v6h-24.5v30h-6.1V5z"/>
		<path d="M262.9,55.5l3.5,1.8c-1.1,2.2-2.4,4-3.9,5.4c-1.5,1.4-3.2,2.4-5,3.1c-1.9,0.7-4,1.1-6.3,1.1c-5.2,0-9.3-1.7-12.2-5.1
			s-4.4-7.3-4.4-11.6c0-4,1.2-7.6,3.7-10.8c3.1-4,7.4-6,12.6-6c5.4,0,9.8,2.1,13,6.2c2.3,2.9,3.5,6.5,3.5,10.9h-28.7
			c0.1,3.7,1.3,6.7,3.5,9.1c2.3,2.4,5.1,3.6,8.5,3.6c1.6,0,3.2-0.3,4.7-0.8c1.5-0.6,2.8-1.3,3.9-2.2
			C260.5,59.1,261.6,57.6,262.9,55.5z M262.9,46.9c-0.5-2.2-1.3-3.9-2.4-5.2c-1-1.3-2.4-2.4-4.2-3.2c-1.7-0.8-3.5-1.2-5.4-1.2
			c-3.1,0-5.8,1-8.1,3c-1.6,1.5-2.9,3.7-3.7,6.6H262.9z"/>
		<path d="M273.5,34.2h4.2v4.7c1.2-1.8,2.6-3.2,4-4.1s2.8-1.4,4.3-1.4c1.1,0,2.3,0.4,3.6,1.1l-2.1,3.5c-0.9-0.4-1.6-0.6-2.2-0.6
			c-1.4,0-2.7,0.6-4,1.7c-1.3,1.1-2.2,2.9-2.9,5.2c-0.5,1.8-0.8,5.5-0.8,11v10.8h-4.2V34.2z"/>
		<path d="M291.5,34.2h4.2v4.7c1.2-1.8,2.6-3.2,4-4.1s2.8-1.4,4.3-1.4c1.1,0,2.3,0.4,3.6,1.1l-2.1,3.5c-0.9-0.4-1.6-0.6-2.2-0.6
			c-1.4,0-2.7,0.6-4,1.7c-1.3,1.1-2.2,2.9-2.9,5.2c-0.5,1.8-0.8,5.5-0.8,11v10.8h-4.2V34.2z"/>
		<path d="M337.7,55.5l3.5,1.8c-1.1,2.2-2.4,4-3.9,5.4c-1.5,1.4-3.2,2.4-5,3.1c-1.9,0.7-4,1.1-6.3,1.1c-5.2,0-9.3-1.7-12.2-5.1
			s-4.4-7.3-4.4-11.6c0-4,1.2-7.6,3.7-10.8c3.1-4,7.4-6,12.6-6c5.4,0,9.8,2.1,13,6.2c2.3,2.9,3.5,6.5,3.5,10.9h-28.7
			c0.1,3.7,1.3,6.7,3.5,9.1c2.3,2.4,5.1,3.6,8.5,3.6c1.6,0,3.2-0.3,4.7-0.8c1.5-0.6,2.8-1.3,3.9-2.2
			C335.3,59.1,336.5,57.6,337.7,55.5z M337.7,46.9c-0.5-2.2-1.3-3.9-2.4-5.2c-1-1.3-2.4-2.4-4.2-3.2c-1.7-0.8-3.5-1.2-5.4-1.2
			c-3.1,0-5.8,1-8.1,3c-1.6,1.5-2.9,3.7-3.7,6.6H337.7z"/>
		<path d="M351.3,21.1c0.9,0,1.7,0.3,2.4,1c0.7,0.7,1,1.5,1,2.4c0,0.9-0.3,1.7-1,2.4c-0.7,0.7-1.5,1-2.4,1c-0.9,0-1.7-0.3-2.4-1
			c-0.7-0.7-1-1.5-1-2.4c0-0.9,0.3-1.7,1-2.4C349.6,21.4,350.4,21.1,351.3,21.1z M349.3,34.2h4.1v31.9h-4.1V34.2z"/>
		<path d="M360.4,34.2h4.2v4.7c1.2-1.8,2.6-3.2,4-4.1s2.8-1.4,4.3-1.4c1.1,0,2.3,0.4,3.6,1.1l-2.1,3.5c-0.9-0.4-1.6-0.6-2.2-0.6
			c-1.4,0-2.7,0.6-4,1.7c-1.3,1.1-2.2,2.9-2.9,5.2c-0.5,1.8-0.8,5.5-0.8,11v10.8h-4.2V34.2z"/>
		<path d="M411.7,34.2v31.9h-4v-5.5c-1.7,2.1-3.6,3.7-5.8,4.7s-4.5,1.6-7,1.6c-4.5,0-8.4-1.6-11.6-4.9s-4.8-7.3-4.8-11.9
			c0-4.6,1.6-8.5,4.8-11.8c3.2-3.3,7.1-4.9,11.6-4.9c2.6,0,5,0.6,7.1,1.7s4,2.8,5.6,5v-5.9H411.7z M395.3,37.3
			c-2.3,0-4.4,0.6-6.3,1.7s-3.5,2.7-4.6,4.7c-1.1,2-1.7,4.2-1.7,6.4c0,2.2,0.6,4.4,1.7,6.4c1.2,2,2.7,3.6,4.6,4.8
			c1.9,1.1,4,1.7,6.2,1.7c2.2,0,4.4-0.6,6.4-1.7c2-1.1,3.6-2.7,4.6-4.6c1.1-1.9,1.6-4.1,1.6-6.5c0-3.7-1.2-6.8-3.6-9.2
			S398.9,37.3,395.3,37.3z"/>
	</g>
</g>
</svg>
